<?xml version="1.0" encoding="UTF-8" standalone="no"?>
<svg width="182px" height="154px" viewBox="0 0 182 154" version="1.1" xmlns="http://www.w3.org/2000/svg" xmlns:xlink="http://www.w3.org/1999/xlink">
    <!-- Generator: Sketch 43.1 (39012) - http://www.bohemiancoding.com/sketch -->
    <title>UCS_Survey_Summary_BM_withoutBQ</title>
    <desc>Created with Sketch.</desc>
    <defs>
        <polygon id="path-1" points="0 184 285.091 184 285.091 0.517 0 0.517"></polygon>
        <polygon id="path-3" points="0 184 285.091 184 285.091 0.517 0 0.517"></polygon>
        <polygon id="path-5" points="0 184 285.091 184 285.091 0.517 0 0.517"></polygon>
        <polygon id="path-7" points="0 184 285.091 184 285.091 0.517 0 0.517"></polygon>
        <polygon id="path-9" points="0 184 285.091 184 285.091 0.517 0 0.517"></polygon>
        <polygon id="path-11" points="0 184 285.091 184 285.091 0.517 0 0.517"></polygon>
        <polygon id="path-13" points="0 184 285.091 184 285.091 0.517 0 0.517"></polygon>
        <polygon id="path-15" points="13.148766 0.158 0.6 0.158 0.6 127.05 13.148766 127.05"></polygon>
        <polygon id="path-17" points="0.942634009 0.158 13.491 0.158 13.491 127.05 0.942634009 127.05"></polygon>
        <polygon id="path-19" points="0.718434009 0.158 23.491 0.158 23.491 127.05 0.718434009 127.05"></polygon>
        <polygon id="path-21" points="0.6 127.05 0.6 0.158 28.491 0.158 28.491 127.05"></polygon>
        <polygon id="path-23" points="0.6 127.05 0.6 0.158 28.491 0.158 28.491 127.05"></polygon>
        <polygon id="path-25" points="0.6 127.05 0.6 0.158 28.491 0.158 28.491 127.05"></polygon>
        <polygon id="path-27" points="0.6 127.05 0.6 0.158 28.491 0.158 28.491 127.05"></polygon>
        <polygon id="path-29" points="0.6 127.05 0.6 0.158 28.491 0.158 28.491 127.05"></polygon>
        <polygon id="path-31" points="0.6 127.05 0.6 0.158 28.491 0.158 28.491 127.05"></polygon>
        <polygon id="path-33" points="0.6 127.05 0.6 0.158 28.491 0.158 28.491 127.05"></polygon>
        <polygon id="path-35" points="0.6 127.05 0.6 0.158 28.491 0.158 28.491 127.05"></polygon>
        <polygon id="path-37" points="0.6 127.05 0.6 0.158 28.491 0.158 28.491 127.05"></polygon>
        <polygon id="path-39" points="0.6 127.05 0.6 0.158 28.491 0.158 28.491 127.05"></polygon>
        <polygon id="path-41" points="0.6 127.05 0.6 0.158 28.491 0.158 28.491 127.05"></polygon>
        <polygon id="path-43" points="24.173666 0.158 0.6 0.158 0.6 127.05 24.173666 127.05"></polygon>
    </defs>
    <g id="Page-1" stroke="none" stroke-width="1" fill="none" fill-rule="evenodd">
        <g id="UCS_Survey_Summary_BM_withoutBQ" transform="translate(-73.000000, -31.000000)">
            <g id="Group-14" transform="translate(0.000000, 0.483000)">
                <g id="Fill-6-Clipped">
                    <mask id="mask-2" fill="white">
                        <use xlink:href="#path-1"></use>
                    </mask>
                    <g id="path-3"></g>
                    <polygon id="Fill-6" fill="#D0D2D3" fill-rule="nonzero" mask="url(#mask-2)" points="210.01 183.049 237.901 183.049 237.901 32.049 210.01 32.049"></polygon>
                </g>
                <g id="Fill-8-Clipped">
                    <mask id="mask-4" fill="white">
                        <use xlink:href="#path-3"></use>
                    </mask>
                    <g id="path-3"></g>
                    <path d="M210.885,182.174 L237.027,182.174 L237.027,32.924 L210.885,32.924 L210.885,182.174 Z M237.902,183.924 L210.01,183.924 C209.527,183.924 209.135,183.532 209.135,183.049 L209.135,32.049 C209.135,31.566 209.527,31.174 210.01,31.174 L237.902,31.174 C238.385,31.174 238.777,31.566 238.777,32.049 L238.777,183.049 C238.777,183.532 238.385,183.924 237.902,183.924 L237.902,183.924 Z" id="Fill-8" fill="#333E48" fill-rule="nonzero" mask="url(#mask-4)"></path>
                </g>
                <g id="Fill-9-Clipped">
                    <mask id="mask-6" fill="white">
                        <use xlink:href="#path-5"></use>
                    </mask>
                    <g id="path-3"></g>
                    <path d="M88.77,182.174 L114.912,182.174 L114.912,91.747 L88.77,91.747 L88.77,182.174 Z M115.787,183.924 L87.895,183.924 C87.412,183.924 87.02,183.532 87.02,183.049 L87.02,90.872 C87.02,90.388 87.412,89.997 87.895,89.997 L115.787,89.997 C116.27,89.997 116.662,90.388 116.662,90.872 L116.662,183.049 C116.662,183.532 116.27,183.924 115.787,183.924 L115.787,183.924 Z" id="Fill-9" fill="#333E48" fill-rule="nonzero" mask="url(#mask-6)"></path>
                </g>
                <g id="Fill-10-Clipped">
                    <mask id="mask-8" fill="white">
                        <use xlink:href="#path-7"></use>
                    </mask>
                    <g id="path-3"></g>
                    <path d="M78.5117,75.8564 L74.5117,75.8564 C73.9597,75.8564 73.5117,75.4084 73.5117,74.8564 C73.5117,74.3044 73.9597,73.8564 74.5117,73.8564 L78.5117,73.8564 C79.0637,73.8564 79.5117,74.3044 79.5117,74.8564 C79.5117,75.4084 79.0637,75.8564 78.5117,75.8564 M86.5117,75.8564 L82.5117,75.8564 C81.9597,75.8564 81.5117,75.4084 81.5117,74.8564 C81.5117,74.3044 81.9597,73.8564 82.5117,73.8564 L86.5117,73.8564 C87.0637,73.8564 87.5117,74.3044 87.5117,74.8564 C87.5117,75.4084 87.0637,75.8564 86.5117,75.8564 M94.5117,75.8564 L90.5117,75.8564 C89.9597,75.8564 89.5117,75.4084 89.5117,74.8564 C89.5117,74.3044 89.9597,73.8564 90.5117,73.8564 L94.5117,73.8564 C95.0637,73.8564 95.5117,74.3044 95.5117,74.8564 C95.5117,75.4084 95.0637,75.8564 94.5117,75.8564 M102.5117,75.8564 L98.5117,75.8564 C97.9597,75.8564 97.5117,75.4084 97.5117,74.8564 C97.5117,74.3044 97.9597,73.8564 98.5117,73.8564 L102.5117,73.8564 C103.0637,73.8564 103.5117,74.3044 103.5117,74.8564 C103.5117,75.4084 103.0637,75.8564 102.5117,75.8564 M110.5117,75.8564 L106.5117,75.8564 C105.9597,75.8564 105.5117,75.4084 105.5117,74.8564 C105.5117,74.3044 105.9597,73.8564 106.5117,73.8564 L110.5117,73.8564 C111.0637,73.8564 111.5117,74.3044 111.5117,74.8564 C111.5117,75.4084 111.0637,75.8564 110.5117,75.8564 M118.5117,75.8564 L114.5117,75.8564 C113.9597,75.8564 113.5117,75.4084 113.5117,74.8564 C113.5117,74.3044 113.9597,73.8564 114.5117,73.8564 L118.5117,73.8564 C119.0637,73.8564 119.5117,74.3044 119.5117,74.8564 C119.5117,75.4084 119.0637,75.8564 118.5117,75.8564 M126.5117,75.8564 L122.5117,75.8564 C121.9597,75.8564 121.5117,75.4084 121.5117,74.8564 C121.5117,74.3044 121.9597,73.8564 122.5117,73.8564 L126.5117,73.8564 C127.0637,73.8564 127.5117,74.3044 127.5117,74.8564 C127.5117,75.4084 127.0637,75.8564 126.5117,75.8564 M134.5117,75.8564 L130.5117,75.8564 C129.9597,75.8564 129.5117,75.4084 129.5117,74.8564 C129.5117,74.3044 129.9597,73.8564 130.5117,73.8564 L134.5117,73.8564 C135.0637,73.8564 135.5117,74.3044 135.5117,74.8564 C135.5117,75.4084 135.0637,75.8564 134.5117,75.8564 M142.5117,75.8564 L138.5117,75.8564 C137.9597,75.8564 137.5117,75.4084 137.5117,74.8564 C137.5117,74.3044 137.9597,73.8564 138.5117,73.8564 L142.5117,73.8564 C143.0637,73.8564 143.5117,74.3044 143.5117,74.8564 C143.5117,75.4084 143.0637,75.8564 142.5117,75.8564 M150.5117,75.8564 L146.5117,75.8564 C145.9597,75.8564 145.5117,75.4084 145.5117,74.8564 C145.5117,74.3044 145.9597,73.8564 146.5117,73.8564 L150.5117,73.8564 C151.0637,73.8564 151.5117,74.3044 151.5117,74.8564 C151.5117,75.4084 151.0637,75.8564 150.5117,75.8564 M158.5117,75.8564 L154.5117,75.8564 C153.9597,75.8564 153.5117,75.4084 153.5117,74.8564 C153.5117,74.3044 153.9597,73.8564 154.5117,73.8564 L158.5117,73.8564 C159.0637,73.8564 159.5117,74.3044 159.5117,74.8564 C159.5117,75.4084 159.0637,75.8564 158.5117,75.8564 M166.5117,75.8564 L162.5117,75.8564 C161.9597,75.8564 161.5117,75.4084 161.5117,74.8564 C161.5117,74.3044 161.9597,73.8564 162.5117,73.8564 L166.5117,73.8564 C167.0637,73.8564 167.5117,74.3044 167.5117,74.8564 C167.5117,75.4084 167.0637,75.8564 166.5117,75.8564 M174.5117,75.8564 L170.5117,75.8564 C169.9587,75.8564 169.5117,75.4084 169.5117,74.8564 C169.5117,74.3044 169.9587,73.8564 170.5117,73.8564 L174.5117,73.8564 C175.0637,73.8564 175.5117,74.3044 175.5117,74.8564 C175.5117,75.4084 175.0637,75.8564 174.5117,75.8564 M182.5117,75.8564 L178.5117,75.8564 C177.9587,75.8564 177.5117,75.4084 177.5117,74.8564 C177.5117,74.3044 177.9587,73.8564 178.5117,73.8564 L182.5117,73.8564 C183.0637,73.8564 183.5117,74.3044 183.5117,74.8564 C183.5117,75.4084 183.0637,75.8564 182.5117,75.8564 M190.5117,75.8564 L186.5117,75.8564 C185.9587,75.8564 185.5117,75.4084 185.5117,74.8564 C185.5117,74.3044 185.9587,73.8564 186.5117,73.8564 L190.5117,73.8564 C191.0637,73.8564 191.5117,74.3044 191.5117,74.8564 C191.5117,75.4084 191.0637,75.8564 190.5117,75.8564 M198.5117,75.8564 L194.5117,75.8564 C193.9587,75.8564 193.5117,75.4084 193.5117,74.8564 C193.5117,74.3044 193.9587,73.8564 194.5117,73.8564 L198.5117,73.8564 C199.0637,73.8564 199.5117,74.3044 199.5117,74.8564 C199.5117,75.4084 199.0637,75.8564 198.5117,75.8564 M206.5117,75.8564 L202.5117,75.8564 C201.9587,75.8564 201.5117,75.4084 201.5117,74.8564 C201.5117,74.3044 201.9587,73.8564 202.5117,73.8564 L206.5117,73.8564 C207.0637,73.8564 207.5117,74.3044 207.5117,74.8564 C207.5117,75.4084 207.0637,75.8564 206.5117,75.8564 M214.5117,75.8564 L210.5117,75.8564 C209.9587,75.8564 209.5117,75.4084 209.5117,74.8564 C209.5117,74.3044 209.9587,73.8564 210.5117,73.8564 L214.5117,73.8564 C215.0637,73.8564 215.5117,74.3044 215.5117,74.8564 C215.5117,75.4084 215.0637,75.8564 214.5117,75.8564 M222.5117,75.8564 L218.5117,75.8564 C217.9587,75.8564 217.5117,75.4084 217.5117,74.8564 C217.5117,74.3044 217.9587,73.8564 218.5117,73.8564 L222.5117,73.8564 C223.0637,73.8564 223.5117,74.3044 223.5117,74.8564 C223.5117,75.4084 223.0637,75.8564 222.5117,75.8564 M230.5117,75.8564 L226.5117,75.8564 C225.9587,75.8564 225.5117,75.4084 225.5117,74.8564 C225.5117,74.3044 225.9587,73.8564 226.5117,73.8564 L230.5117,73.8564 C231.0637,73.8564 231.5117,74.3044 231.5117,74.8564 C231.5117,75.4084 231.0637,75.8564 230.5117,75.8564 M238.5117,75.8564 L234.5117,75.8564 C233.9587,75.8564 233.5117,75.4084 233.5117,74.8564 C233.5117,74.3044 233.9587,73.8564 234.5117,73.8564 L238.5117,73.8564 C239.0637,73.8564 239.5117,74.3044 239.5117,74.8564 C239.5117,75.4084 239.0637,75.8564 238.5117,75.8564 M246.5117,75.8564 L242.5117,75.8564 C241.9597,75.8564 241.5117,75.4084 241.5117,74.8564 C241.5117,74.3044 241.9597,73.8564 242.5117,73.8564 L246.5117,73.8564 C247.0647,73.8564 247.5117,74.3044 247.5117,74.8564 C247.5117,75.4084 247.0647,75.8564 246.5117,75.8564 M253.2857,75.8564 L250.5117,75.8564 C249.9597,75.8564 249.5117,75.4084 249.5117,74.8564 C249.5117,74.3044 249.9597,73.8564 250.5117,73.8564 L253.2857,73.8564 C253.8387,73.8564 254.2857,74.3044 254.2857,74.8564 C254.2857,75.4084 253.8387,75.8564 253.2857,75.8564" id="Fill-10" fill="#333E48" fill-rule="nonzero" mask="url(#mask-8)"></path>
                </g>
                <g id="Fill-11-Clipped">
                    <mask id="mask-10" fill="white">
                        <use xlink:href="#path-9"></use>
                    </mask>
                    <g id="path-3"></g>
                    <path d="M170.18,182.174 L196.322,182.174 L196.322,115.956 L170.18,115.956 L170.18,182.174 Z M197.197,183.924 L169.305,183.924 C168.822,183.924 168.43,183.532 168.43,183.049 L168.43,115.081 C168.43,114.598 168.822,114.206 169.305,114.206 L197.197,114.206 C197.68,114.206 198.072,114.598 198.072,115.081 L198.072,183.049 C198.072,183.532 197.68,183.924 197.197,183.924 L197.197,183.924 Z" id="Fill-11" fill="#333E48" fill-rule="nonzero" mask="url(#mask-10)"></path>
                </g>
                <g id="Fill-12-Clipped">
                    <mask id="mask-12" fill="white">
                        <use xlink:href="#path-11"></use>
                    </mask>
                    <g id="path-3"></g>
                    <polygon id="Fill-12" fill="#FFFFFF" fill-rule="nonzero" mask="url(#mask-12)" points="128.6 183.049 156.491 183.049 156.491 56.157 128.6 56.157"></polygon>
                </g>
                <g id="Fill-13-Clipped">
                    <mask id="mask-14" fill="white">
                        <use xlink:href="#path-13"></use>
                    </mask>
                    <g id="path-3"></g>
                    <path d="M129.475,182.174 L155.617,182.174 L155.617,57.032 L129.475,57.032 L129.475,182.174 Z M156.492,183.924 L128.6,183.924 C128.117,183.924 127.725,183.532 127.725,183.049 L127.725,56.157 C127.725,55.674 128.117,55.282 128.6,55.282 L156.492,55.282 C156.975,55.282 157.367,55.674 157.367,56.157 L157.367,183.049 C157.367,183.532 156.975,183.924 156.492,183.924 L156.492,183.924 Z" id="Fill-13" fill="#00BF6F" fill-rule="nonzero" mask="url(#mask-14)"></path>
                </g>
            </g>
            <g id="Group-60" transform="translate(128.000000, 56.483000)">
                <g id="Group-17">
                    <g id="Fill-15-Clipped">
                        <mask id="mask-16" fill="white">
                            <use xlink:href="#path-15"></use>
                        </mask>
                        <g id="path-5"></g>
                        <path d="M-127.1245,127.5498 C-127.3625,127.5498 -127.6005,127.4528 -127.7725,127.2628 C-128.0975,126.9048 -128.0705,126.3518 -127.7135,126.0278 L11.6855,-0.5662 C12.0435,-0.8902 12.5975,-0.8642 12.9215,-0.5062 C13.2465,-0.1482 13.2195,0.4048 12.8625,0.7298 L-126.5365,127.3218 C-126.7045,127.4748 -126.9155,127.5498 -127.1245,127.5498" id="Fill-15" fill="#00BF6F" fill-rule="nonzero" mask="url(#mask-16)"></path>
                    </g>
                </g>
                <g id="Group-20" transform="translate(15.000000, 0.000000)">
                    <g id="Fill-18-Clipped">
                        <mask id="mask-18" fill="white">
                            <use xlink:href="#path-17"></use>
                        </mask>
                        <g id="path-7"></g>
                        <path d="M1.8179,128 C1.5799,128 1.3419,127.903 1.1699,127.713 C0.8449,127.355 0.8719,126.802 1.2289,126.478 L140.6289,-0.116 C140.9849,-0.441 141.5389,-0.415 141.8639,-0.057 C142.1889,0.301 142.1629,0.854 141.8039,1.18 L2.4059,127.772 C2.2379,127.925 2.0269,128 1.8179,128" id="Fill-18" fill="#00BF6F" fill-rule="nonzero" mask="url(#mask-18)"></path>
                    </g>
                </g>
                <g id="Group-23" transform="translate(5.000000, 0.000000)">
                    <g id="Fill-21-Clipped">
                        <mask id="mask-20" fill="white">
                            <use xlink:href="#path-19"></use>
                        </mask>
                        <g id="path-9"></g>
                        <path d="M1.5937,127.9678 C1.3557,127.9678 1.1177,127.8708 0.9457,127.6808 C0.6207,127.3228 0.6477,126.7698 1.0047,126.4458 L140.4037,-0.1482 C140.7607,-0.4722 141.3137,-0.4462 141.6387,-0.0882 C141.9647,0.2698 141.9377,0.8228 141.5797,1.1478 L2.1817,127.7398 C2.0137,127.8928 1.8027,127.9678 1.5937,127.9678" id="Fill-21" fill="#00BF6F" fill-rule="nonzero" mask="url(#mask-20)"></path>
                    </g>
                </g>
                <g id="Group-26">
                    <g id="Fill-24-Clipped">
                        <mask id="mask-22" fill="white">
                            <use xlink:href="#path-21"></use>
                        </mask>
                        <g id="path-11"></g>
                        <path d="M-3.6309,127.9355 C-3.8689,127.9355 -4.1069,127.8385 -4.2789,127.6485 C-4.6039,127.2905 -4.5769,126.7375 -4.2199,126.4135 L135.1801,-0.1805 C135.5361,-0.5045 136.0901,-0.4785 136.4151,-0.1205 C136.7411,0.2375 136.7141,0.7905 136.3561,1.1155 L-3.0429,127.7075 C-3.2109,127.8605 -3.4219,127.9355 -3.6309,127.9355" id="Fill-24" fill="#00BF6F" fill-rule="nonzero" mask="url(#mask-22)"></path>
                    </g>
                </g>
                <g id="Group-29">
                    <g id="Fill-27-Clipped">
                        <mask id="mask-24" fill="white">
                            <use xlink:href="#path-23"></use>
                        </mask>
                        <g id="path-13"></g>
                        <path d="M-13.855,127.9043 C-14.093,127.9043 -14.331,127.8073 -14.503,127.6173 C-14.828,127.2593 -14.801,126.7063 -14.444,126.3823 L124.956,-0.2117 C125.312,-0.5367 125.866,-0.5097 126.191,-0.1527 C126.516,0.2053 126.49,0.7583 126.131,1.0843 L-13.267,127.6763 C-13.435,127.8293 -13.646,127.9043 -13.855,127.9043" id="Fill-27" fill="#00BF6F" fill-rule="nonzero" mask="url(#mask-24)"></path>
                    </g>
                </g>
                <g id="Group-32">
                    <g id="Fill-30-Clipped">
                        <mask id="mask-26" fill="white">
                            <use xlink:href="#path-25"></use>
                        </mask>
                        <g id="path-15"></g>
                        <path d="M-24.0796,127.8721 C-24.3176,127.8721 -24.5556,127.7751 -24.7276,127.5851 C-25.0526,127.2271 -25.0256,126.6741 -24.6686,126.3501 L114.7314,-0.2439 C115.0874,-0.5679 115.6414,-0.5409 115.9664,-0.1849 C116.2914,0.1731 116.2654,0.7261 115.9064,1.0521 L-23.4916,127.6441 C-23.6596,127.7971 -23.8706,127.8721 -24.0796,127.8721" id="Fill-30" fill="#00BF6F" fill-rule="nonzero" mask="url(#mask-26)"></path>
                    </g>
                </g>
                <g id="Group-35">
                    <g id="Fill-33-Clipped">
                        <mask id="mask-28" fill="white">
                            <use xlink:href="#path-27"></use>
                        </mask>
                        <g id="path-17"></g>
                        <path d="M-34.3042,127.8398 C-34.5422,127.8398 -34.7802,127.7428 -34.9522,127.5528 C-35.2772,127.1948 -35.2502,126.6418 -34.8932,126.3178 L104.5068,-0.2762 C104.8628,-0.6002 105.4178,-0.5742 105.7418,-0.2162 C106.0668,0.1418 106.0408,0.6948 105.6818,1.0198 L-33.7162,127.6118 C-33.8842,127.7648 -34.0952,127.8398 -34.3042,127.8398" id="Fill-33" fill="#00BF6F" fill-rule="nonzero" mask="url(#mask-28)"></path>
                    </g>
                </g>
                <g id="Group-38">
                    <g id="Fill-36-Clipped">
                        <mask id="mask-30" fill="white">
                            <use xlink:href="#path-29"></use>
                        </mask>
                        <g id="path-19"></g>
                        <path d="M-44.5283,127.8076 C-44.7663,127.8076 -45.0043,127.7106 -45.1763,127.5206 C-45.5013,127.1626 -45.4743,126.6096 -45.1173,126.2856 L94.2817,-0.3084 C94.6387,-0.6324 95.1917,-0.6054 95.5167,-0.2484 C95.8427,0.1096 95.8157,0.6626 95.4577,0.9876 L-43.9403,127.5796 C-44.1083,127.7326 -44.3193,127.8076 -44.5283,127.8076" id="Fill-36" fill="#00BF6F" fill-rule="nonzero" mask="url(#mask-30)"></path>
                    </g>
                </g>
                <g id="Group-41">
                    <g id="Fill-39-Clipped">
                        <mask id="mask-32" fill="white">
                            <use xlink:href="#path-31"></use>
                        </mask>
                        <g id="path-21"></g>
                        <path d="M-54.7529,127.7764 C-54.9909,127.7764 -55.2289,127.6794 -55.4009,127.4894 C-55.7259,127.1314 -55.6989,126.5784 -55.3419,126.2544 L84.0571,-0.3396 C84.4141,-0.6636 84.9671,-0.6376 85.2921,-0.2806 C85.6181,0.0774 85.5911,0.6304 85.2331,0.9564 L-54.1649,127.5484 C-54.3329,127.7014 -54.5439,127.7764 -54.7529,127.7764" id="Fill-39" fill="#00BF6F" fill-rule="nonzero" mask="url(#mask-32)"></path>
                    </g>
                </g>
                <g id="Group-44">
                    <g id="Fill-42-Clipped">
                        <mask id="mask-34" fill="white">
                            <use xlink:href="#path-33"></use>
                        </mask>
                        <g id="path-23"></g>
                        <path d="M-64.9776,127.7441 C-65.2156,127.7441 -65.4536,127.6471 -65.6256,127.4571 C-65.9506,127.0991 -65.9236,126.5461 -65.5666,126.2221 L73.8334,-0.3719 C74.1894,-0.6959 74.7434,-0.6699 75.0684,-0.3129 C75.3944,0.0451 75.3674,0.5981 75.0094,0.9241 L-64.3896,127.5161 C-64.5576,127.6691 -64.7686,127.7441 -64.9776,127.7441" id="Fill-42" fill="#00BF6F" fill-rule="nonzero" mask="url(#mask-34)"></path>
                    </g>
                </g>
                <g id="Group-47">
                    <g id="Fill-45-Clipped">
                        <mask id="mask-36" fill="white">
                            <use xlink:href="#path-35"></use>
                        </mask>
                        <g id="path-25"></g>
                        <path d="M-75.2017,127.7119 C-75.4397,127.7119 -75.6777,127.6149 -75.8497,127.4249 C-76.1747,127.0669 -76.1477,126.5139 -75.7907,126.1899 L63.6093,-0.4041 C63.9663,-0.7281 64.5193,-0.7011 64.8443,-0.3441 C65.1693,0.0139 65.1433,0.5669 64.7843,0.8919 L-74.6137,127.4839 C-74.7817,127.6369 -74.9927,127.7119 -75.2017,127.7119" id="Fill-45" fill="#00BF6F" fill-rule="nonzero" mask="url(#mask-36)"></path>
                    </g>
                </g>
                <g id="Group-50">
                    <g id="Fill-48-Clipped">
                        <mask id="mask-38" fill="white">
                            <use xlink:href="#path-37"></use>
                        </mask>
                        <g id="path-27"></g>
                        <path d="M-85.4263,127.6797 C-85.6643,127.6797 -85.9023,127.5827 -86.0743,127.3927 C-86.3993,127.0347 -86.3723,126.4817 -86.0153,126.1577 L53.3847,-0.4353 C53.7407,-0.7593 54.2947,-0.7333 54.6197,-0.3763 C54.9447,-0.0183 54.9187,0.5347 54.5597,0.8607 L-84.8383,127.4517 C-85.0063,127.6047 -85.2173,127.6797 -85.4263,127.6797" id="Fill-48" fill="#00BF6F" fill-rule="nonzero" mask="url(#mask-38)"></path>
                    </g>
                </g>
                <g id="Group-53">
                    <g id="Fill-51-Clipped">
                        <mask id="mask-40" fill="white">
                            <use xlink:href="#path-39"></use>
                        </mask>
                        <g id="path-29"></g>
                        <path d="M-95.6509,127.6484 C-95.8889,127.6484 -96.1269,127.5514 -96.2989,127.3614 C-96.6239,127.0034 -96.5969,126.4504 -96.2399,126.1264 L43.1601,-0.4676 C43.5171,-0.7916 44.0711,-0.7656 44.3951,-0.4086 C44.7201,-0.0506 44.6941,0.5024 44.3351,0.8284 L-95.0629,127.4204 C-95.2309,127.5734 -95.4419,127.6484 -95.6509,127.6484" id="Fill-51" fill="#00BF6F" fill-rule="nonzero" mask="url(#mask-40)"></path>
                    </g>
                </g>
                <g id="Group-56">
                    <g id="Fill-54-Clipped">
                        <mask id="mask-42" fill="white">
                            <use xlink:href="#path-41"></use>
                        </mask>
                        <g id="path-31"></g>
                        <path d="M-105.875,127.6162 C-106.113,127.6162 -106.351,127.5192 -106.523,127.3292 C-106.848,126.9712 -106.821,126.4182 -106.464,126.0942 L32.935,-0.4998 C33.292,-0.8238 33.847,-0.7968 34.171,-0.4398 C34.496,-0.0818 34.469,0.4712 34.112,0.7962 L-105.287,127.3882 C-105.455,127.5412 -105.666,127.6162 -105.875,127.6162" id="Fill-54" fill="#00BF6F" fill-rule="nonzero" mask="url(#mask-42)"></path>
                    </g>
                </g>
                <g id="Group-59">
                    <g id="Fill-57-Clipped">
                        <mask id="mask-44" fill="white">
                            <use xlink:href="#path-43"></use>
                        </mask>
                        <g id="path-33"></g>
                        <path d="M-116.0996,127.584 C-116.3376,127.584 -116.5756,127.487 -116.7476,127.297 C-117.0726,126.939 -117.0456,126.386 -116.6886,126.062 L22.7104,-0.532 C23.0684,-0.856 23.6224,-0.829 23.9464,-0.472 C24.2714,-0.114 24.2444,0.439 23.8874,0.764 L-115.5116,127.356 C-115.6796,127.509 -115.8906,127.584 -116.0996,127.584" id="Fill-57" fill="#00BF6F" fill-rule="nonzero" mask="url(#mask-44)"></path>
                    </g>
                </g>
            </g>
            <path d="M253.2856,184.4068 L74.5116,184.4068 C74.0286,184.4068 73.6366,184.0148 73.6366,183.5318 C73.6366,183.0488 74.0286,182.6568 74.5116,182.6568 L253.2856,182.6568 C253.7686,182.6568 254.1606,183.0488 254.1606,183.5318 C254.1606,184.0148 253.7686,184.4068 253.2856,184.4068" id="Fill-4" fill="#333E48" fill-rule="nonzero"></path>
        </g>
    </g>
</svg>