<?xml version="1.0" encoding="utf-8"?>
<svg viewBox="-0.4942581281065941 -0.5436838865280151 38.000003062188625 37.9885139465332" width="37px" height="37px" xmlns="http://www.w3.org/2000/svg">
  <g id="Overview" stroke="none" stroke-width="1" fill="none" fill-rule="evenodd" transform="matrix(1, 0, 0, 1, -6, -6.042982)">
    <g id="T_6.1" transform="translate(-229.000000, -324.000000)">
      <g id="Group-4" transform="translate(232.000000, 327.000000)">
        <g id="Group-2">
          <g id="Oval-6"/>
          <g id="Empty-profile-image" transform="translate(3.000000, 3.000000)">
            <g id="Page-1">
              <g id="Empty-profile">
                <mask id="mask-3" fill="white">
                  <circle id="" cx="18.5" cy="18.5" r="18.5" transform="matrix(1, 0, 0, 1, 0, 0)"/>
                </mask>
                <circle class="avatar-circle" id="Mask" cx="18.5" cy="18.5" r="18.5" transform="matrix(1, 0, 0, 1, 0, 0)" style="stroke: rgb(139, 70, 148);"/>
                <path class="avatar" d="M32.3039471,30.1089501 C31.8753906,28.9951861 30.9988445,28.0158464 30.1041523,27.2465204 C29.099168,26.3821639 27.9478567,25.9189056 26.7552341,25.3833832 C25.1119193,24.645393 23.4925419,23.8515101 21.8853906,23.0388256 C22.5956619,22.1760039 23.2175193,21.143713 23.4547054,20.0408207 C23.482761,19.9106172 23.4718219,19.9203377 23.5740063,19.8045871 C23.816855,19.52896 24.0352515,19.232357 24.2361454,18.925394 C24.5024167,18.5184123 24.7455228,18.0916059 24.9477037,17.6493234 C25.1389454,17.2310864 25.8031437,14.3617501 24.6066602,14.4618967 C24.7794984,11.6159664 24.2450254,8.26597723 21.5399715,6.71108193 C20.5528758,6.14358415 19.4323228,5.90428094 18.3007019,5.9207802 C17.0219819,5.93945378 15.7256306,6.3876197 14.7304271,7.18687452 C12.5845558,8.91034365 12.2052897,11.8945353 12.3611402,14.4618967 C11.1647854,14.3617501 11.828855,17.2310864 12.0200967,17.6493234 C12.2045176,18.0528518 12.4239437,18.4426948 12.6619019,18.8170617 C12.8566184,19.1232572 13.067808,19.4198602 13.3017767,19.6976617 C13.3995854,19.8136681 13.4778323,19.8676424 13.5060167,20.0066711 C13.7323923,21.1215861 14.3671193,22.1699925 15.0824097,23.0388256 C13.9501454,23.6114395 12.8101593,24.1698562 11.663095,24.7126691 C9.85440626,25.5685841 7.94250365,26.1910795 6.47331409,27.6013185 C5.79444452,28.2528474 5.164608,29.013476 4.76590887,29.8699027 C4.41251061,30.6287407 4.24803757,31.4887486 4.07584278,32.3022004 C3.93685148,32.9588454 3.81343235,33.6190716 3.70468452,34.2813441 C3.67495583,34.4625802 3.79232626,34.6237358 3.90982539,34.7556019 C4.40015583,35.3060888 5.22316452,35.538997 5.91516104,35.6958039 C6.84640278,35.906713 7.80428452,36.0318004 8.74865322,36.1694222 C11.0632445,36.5065698 13.3936654,36.7699185 15.7303923,36.8900177 C19.5473767,37.0859624 23.3684793,36.8263229 27.1965315,36.3125437 C28.4338115,36.1464 29.6837037,35.9840933 30.906055,35.7277792 C31.6631715,35.5689259 32.8057315,35.299438 33.2099645,34.5421348 C33.3816445,34.2204632 33.1699402,33.7304735 33.1098393,33.4050928 C32.9062428,32.3025841 32.7081802,31.1595308 32.3039471,30.1089501" id="Fill-1" mask="url(#mask-3)" style="stroke: rgb(139, 70, 148); fill: rgb(139, 70, 148);"/>
              </g>
            </g>
          </g>
        </g>
      </g>
    </g>
  </g>
</svg>
